<?xml version="1.0" encoding="UTF-8" standalone="no"?>
<svg
   xmlns:dc="http://purl.org/dc/elements/1.1/"
   xmlns:cc="http://creativecommons.org/ns#"
   xmlns:rdf="http://www.w3.org/1999/02/22-rdf-syntax-ns#"
   xmlns:svg="http://www.w3.org/2000/svg"
   xmlns="http://www.w3.org/2000/svg"
   id="svg838"
   version="1.1"
   viewBox="0 0 68.530212 11.523349"
   height="11.523349mm"
   width="68.530212mm">
  <g
     transform="translate(-27.048745,-42.125555)"
     id="layer1">
    <g
       transform="matrix(0.05339346,0,0,0.05339346,25.758345,40.06805)"
       id="g1792">
      <g
         id="_x38_7_36_"
         transform="matrix(0.84104081,0,0,0.84104081,2.8372819,38.534782)">
		<g
   id="g1514">
			
			
			
			
			
			<path
   id="path1508"
   d="M 25.362,58.087 V 256.61 H 178.239 V 85.63 L 149.833,58.087 Z M 165.026,243.393 H 38.585 V 71.305 h 104.443 v 20.97 h 21.988 v 151.118 z" />

			<polygon
   id="polygon1510"
   points="51.204,50.645 64.427,50.645 64.427,40.88 168.875,40.88 168.875,61.85 190.868,61.85 190.868,212.971 185.059,212.971 185.059,226.188 204.086,226.188 204.086,55.205 175.68,27.667 51.204,27.667 " />

			<polygon
   id="polygon1512"
   points="78.363,0 78.363,22.983 91.581,22.983 91.581,13.218 196.032,13.218 196.032,34.188 218.025,34.188 218.025,185.306 212.221,185.306 212.221,198.523 231.248,198.523 231.248,27.543 202.837,0 " />

		</g>

	</g>
      <g
         id="g1767"
         transform="matrix(0.16059693,0,0,0.16059693,42.234044,128.81592)">
        <g
           id="g1709">
	<path
   id="path1703"
   d="m 61.2,341.538 c 4.9,16.8 11.7,33 20.3,48.2 l -24.5,30.9 c -8,10.1 -7.1,24.5 1.9,33.6 l 42.2,42.2 c 9.1,9.1 23.5,9.899 33.6,1.899 l 30.7,-24.3 c 15.8,9.101 32.6,16.2 50.1,21.2 l 4.6,39.5 c 1.5,12.8 12.3,22.4 25.1,22.4 h 59.7 c 12.8,0 23.6,-9.601 25.1,-22.4 l 4.4,-38.1 c 18.8,-4.9 36.8,-12.2 53.7,-21.7 l 29.7,23.5 c 10.1,8 24.5,7.1 33.6,-1.9 l 42.2,-42.2 c 9.1,-9.1 9.9,-23.5 1.9,-33.6 l -23.1,-29.3 c 9.6,-16.601 17.1,-34.3 22.1,-52.8 l 35.6,-4.1 c 12.801,-1.5 22.4,-12.3 22.4,-25.1 v -59.7 c 0,-12.8 -9.6,-23.6 -22.4,-25.1 l -35.1,-4.1 c -4.801,-18.3 -12,-35.8 -21.199,-52.2 l 21.6,-27.3 c 8,-10.1 7.1,-24.5 -1.9,-33.6 l -42.1,-42.1 c -9.1,-9.1 -23.5,-9.9 -33.6,-1.9 l -26.5,21 c -17.2,-10.1 -35.601,-17.8 -54.9,-23 l -4,-34.3 c -1.5,-12.8 -12.3,-22.4 -25.1,-22.4 h -59.7 c -12.8,0 -23.6,9.6 -25.1,22.4 l -4,34.3 c -19.8,5.3 -38.7,13.3 -56.3,23.8 l -27.5,-21.8 c -10.1,-8 -24.5,-7.1 -33.6,1.9 l -42.2,42.2 c -9.1,9.1 -9.9,23.5 -1.9,33.6 l 23,29.1 c -9.2,16.6 -16.2,34.3 -20.8,52.7 l -36.8,4.2 c -12.8,1.5 -22.4,12.3 -22.4,25.1 v 59.7 c 0,12.8 9.6,23.6 22.4,25.1 z m 216.3,-161.5 c 54.4,0 98.7,44.3 98.7,98.7 0,54.4 -44.3,98.7 -98.7,98.7 -54.399,0 -98.7,-44.3 -98.7,-98.7 0,-54.4 44.3,-98.7 98.7,-98.7 z" />

	
	
</g>
        <g
           id="g1711">
</g>
        <g
           id="g1713">
</g>
        <g
           id="g1715">
</g>
        <g
           id="g1717">
</g>
        <g
           id="g1719">
</g>
        <g
           id="g1721">
</g>
        <g
           id="g1723">
</g>
        <g
           id="g1725">
</g>
        <g
           id="g1727">
</g>
        <g
           id="g1729">
</g>
        <g
           id="g1731">
</g>
        <g
           id="g1733">
</g>
        <g
           id="g1735">
</g>
        <g
           id="g1737">
</g>
        <g
           id="g1739">
</g>
      </g>
    </g>
    <flowRoot
       transform="matrix(0.26458333,0,0,0.26458333,-32.921728,-4.3467264)"
       style="font-style:normal;font-variant:normal;font-weight:normal;font-stretch:normal;font-size:40px;line-height:1.25;font-family:GurbaniBoliLite;-inkscape-font-specification:GurbaniBoliLite;letter-spacing:0px;word-spacing:0px;fill:#000000;fill-opacity:1;stroke:none"
       id="flowRoot1794"
       xml:space="preserve"><flowRegion
         style="font-style:normal;font-variant:normal;font-weight:normal;font-stretch:normal;font-family:GurbaniBoliLite;-inkscape-font-specification:GurbaniBoliLite"
         id="flowRegion1796"><rect
           style="font-style:normal;font-variant:normal;font-weight:normal;font-stretch:normal;font-family:GurbaniBoliLite;-inkscape-font-specification:GurbaniBoliLite"
           y="171.09111"
           x="264.28571"
           height="152.14285"
           width="277.14285"
           id="rect1798" /></flowRegion><flowPara
         id="flowPara1800">Docs2page</flowPara></flowRoot>  </g>
</svg>
